<?xml version="1.0" encoding="UTF-8" standalone="no" ?>
<!DOCTYPE svg PUBLIC "-//W3C//DTD SVG 1.1//EN" "http://www.w3.org/Graphics/SVG/1.1/DTD/svg11.dtd">
<svg xmlns="http://www.w3.org/2000/svg" xmlns:xlink="http://www.w3.org/1999/xlink" version="1.1" width="1080" height="1080" viewBox="0 0 1080 1080" xml:space="preserve">
<desc>Created with Fabric.js 5.2.4</desc>
<defs>
</defs>
<g transform="matrix(1 0 0 1 540 540)" id="4d4f5ee3-8f86-425f-a589-9f9aa58d8c33"  >
<rect style="stroke: none; stroke-width: 1; stroke-dasharray: none; stroke-linecap: butt; stroke-dashoffset: 0; stroke-linejoin: miter; stroke-miterlimit: 4; fill: rgb(255,255,255); fill-rule: nonzero; opacity: 1; visibility: hidden;" vector-effect="non-scaling-stroke"  x="-540" y="-540" rx="0" ry="0" width="1080" height="1080" />
</g>
<g transform="matrix(1 0 0 1 540 540)" id="1c70b5af-3ea0-4bb0-b487-1a26ef59cfbf"  >
</g>
<g transform="matrix(45 0 0 45 513.37 560.71)"  >
<path style="stroke: none; stroke-width: 1; stroke-dasharray: none; stroke-linecap: butt; stroke-dashoffset: 0; stroke-linejoin: miter; stroke-miterlimit: 4; fill: rgb(255,255,255); fill-rule: evenodd; opacity: 1;"  transform=" translate(-12.02, -12.35)" d="M 5.17115 6.72115 C 5.92126 5.97127 6.93849 5.55001 7.99915 5.55001 C 9.0598 5.55001 10.077 5.97127 10.8271 6.72115 L 11.9991 7.89215 L 13.1711 6.72115 C 13.5401 6.33911 13.9815 6.03438 14.4695 5.82475 C 14.9575 5.61511 15.4824 5.50477 16.0135 5.50015 C 16.5447 5.49554 17.0714 5.59674 17.563 5.79787 C 18.0545 5.99899 18.5012 6.296 18.8767 6.67157 C 19.2523 7.04714 19.5493 7.49375 19.7504 7.98534 C 19.9516 8.47692 20.0528 9.00364 20.0481 9.53476 C 20.0435 10.0659 19.9332 10.5908 19.7236 11.0788 C 19.5139 11.5668 19.2092 12.0082 18.8271 12.3772 L 11.9991 19.2062 L 5.17115 12.3772 C 4.42126 11.627 4 10.6098 4 9.54915 C 4 8.4885 4.42126 7.47126 5.17115 6.72115 Z" stroke-linecap="round" />
</g>
</svg>